<svg width="100" height="27" viewBox="0 0 100 27" fill="none" xmlns="http://www.w3.org/2000/svg">
<path opacity="0.2" d="M15 13.5C15 18.4688 12.6497 22.5 9.75 22.5C6.85031 22.5 4.5 18.4688 4.5 13.5C4.5 8.53125 6.85031 4.5 9.75 4.5C12.6497 4.5 15 8.53125 15 13.5Z" fill="#101828"/>
<path d="M18.6103 6.75844C17.4787 4.81875 15.93 3.75 14.25 3.75H9.75C8.07 3.75 6.52125 4.81875 5.38969 6.75844C4.33219 8.57062 3.75 10.9688 3.75 13.5C3.75 16.0312 4.33219 18.4294 5.38969 20.2416C6.52125 22.1812 8.07 23.25 9.75 23.25H14.25C15.93 23.25 17.4787 22.1812 18.6103 20.2416C19.6678 18.4294 20.25 16.0312 20.25 13.5C20.25 10.9688 19.6678 8.57062 18.6103 6.75844ZM18.7303 12.75H15.7303C15.6717 11.211 15.3653 9.69146 14.8228 8.25H17.6906C18.2644 9.50437 18.6431 11.0625 18.7303 12.75ZM16.7991 6.75H14.1056C13.7925 6.20648 13.4147 5.70283 12.9806 5.25H14.25C15.1875 5.25 16.0688 5.8125 16.7991 6.75ZM5.25 13.5C5.25 9.02812 7.3125 5.25 9.75 5.25C12.1875 5.25 14.25 9.02812 14.25 13.5C14.25 17.9719 12.1875 21.75 9.75 21.75C7.3125 21.75 5.25 17.9719 5.25 13.5ZM14.25 21.75H12.9834C13.4175 21.2972 13.7953 20.7935 14.1084 20.25H16.8019C16.0688 21.1875 15.1875 21.75 14.25 21.75ZM17.6906 18.75H14.8237C15.3662 17.3085 15.6726 15.789 15.7313 14.25H18.7313C18.6431 15.9375 18.2644 17.4956 17.6906 18.75Z" fill="#101828"/>
<path d="M28.8759 21H26.4359V13.16H24.5359V11.12H26.4359V8.04H28.8759V11.12H30.7959V13.16H28.8759V21ZM38.5127 11.08V13.34H37.6127C35.8527 13.34 34.7527 14.28 34.7527 16.2V21H32.3127V11.14H34.6127L34.7527 12.58C35.1727 11.6 36.1127 10.94 37.4327 10.94C37.7727 10.94 38.1127 10.98 38.5127 11.08ZM42.7137 21.26C40.6137 21.26 39.3337 20.04 39.3337 18.18C39.3337 16.36 40.6537 15.22 42.9937 15.04L45.9537 14.82V14.6C45.9537 13.26 45.1537 12.72 43.9137 12.72C42.4737 12.72 41.6737 13.32 41.6737 14.36H39.5937C39.5937 12.22 41.3537 10.82 44.0337 10.82C46.6937 10.82 48.3337 12.26 48.3337 15V21H46.1937L46.0137 19.54C45.5937 20.56 44.2537 21.26 42.7137 21.26ZM43.5137 19.42C45.0137 19.42 45.9737 18.52 45.9737 17V16.48L43.9137 16.64C42.3937 16.78 41.8137 17.28 41.8137 18.08C41.8137 18.98 42.4137 19.42 43.5137 19.42ZM50.1507 16.04C50.1507 12.98 52.1707 10.82 55.0907 10.82C57.7907 10.82 59.6307 12.32 59.8907 14.7H57.4507C57.1707 13.58 56.3507 13 55.1907 13C53.6307 13 52.5907 14.18 52.5907 16.04C52.5907 17.9 53.5507 19.06 55.1107 19.06C56.3307 19.06 57.1907 18.46 57.4507 17.38H59.9107C59.6107 19.68 57.6907 21.26 55.1107 21.26C52.1107 21.26 50.1507 19.18 50.1507 16.04ZM64.1868 21H61.7668V6.12H64.1868V15.26L68.0268 11.12H71.0868L67.3268 15.04L71.0068 21H68.2068L65.6268 16.84L64.1868 18.34V21ZM76.4593 21.26C73.5193 21.26 71.4593 19.12 71.4593 16.06C71.4593 12.96 73.4793 10.82 76.3793 10.82C79.3393 10.82 81.2193 12.8 81.2193 15.88V16.62L73.7793 16.64C73.9593 18.38 74.8793 19.26 76.4993 19.26C77.8393 19.26 78.7193 18.74 78.9993 17.8H81.2593C80.8393 19.96 79.0393 21.26 76.4593 21.26ZM76.3993 12.82C74.9593 12.82 74.0793 13.6 73.8393 15.08H78.7993C78.7993 13.72 77.8593 12.82 76.3993 12.82ZM87.5921 21.26C84.6521 21.26 82.5921 19.12 82.5921 16.06C82.5921 12.96 84.6121 10.82 87.5121 10.82C90.4721 10.82 92.3521 12.8 92.3521 15.88V16.62L84.9121 16.64C85.0921 18.38 86.0121 19.26 87.6321 19.26C88.9721 19.26 89.8521 18.74 90.1321 17.8H92.3921C91.9721 19.96 90.1721 21.26 87.5921 21.26ZM87.5321 12.82C86.0921 12.82 85.2121 13.6 84.9721 15.08H89.9321C89.9321 13.72 88.9921 12.82 87.5321 12.82ZM97.5673 21H95.1273V13.16H93.2273V11.12H95.1273V8.04H97.5673V11.12H99.4873V13.16H97.5673V21Z" fill="#101828"/>
</svg>
